<mxfile host="Electron" modified="2023-05-10T14:30:11.910Z" agent="Mozilla/5.0 (Windows NT 10.0; Win64; x64) AppleWebKit/537.36 (KHTML, like Gecko) draw.io/21.2.8 Chrome/112.0.5615.165 Electron/24.2.0 Safari/537.36" etag="QRyNPqaCgccwLMj95Q2H" version="21.2.8" type="device">
  <diagram name="Page-1" id="cZNyfnpEq3qmmilY1TUj">
    <mxGraphModel dx="1434" dy="1944" grid="1" gridSize="10" guides="1" tooltips="1" connect="1" arrows="1" fold="1" page="1" pageScale="1" pageWidth="850" pageHeight="1100" math="0" shadow="0">
      <root>
        <mxCell id="0" />
        <mxCell id="1" parent="0" />
        <mxCell id="pZjR4BknA9586NugJOHq-1" value="Resource: Un elemento al que se desea acceder, api, contactos.&lt;br&gt;&lt;div style=&quot;&quot;&gt;&lt;span style=&quot;background-color: initial;&quot;&gt;Scope: Es casi equivalente a resource, se da acceso a scopes que representan recursos , son los nombres de uno o más recursos por ejemplo &quot;userInfo&quot; o &quot;userAPI&quot;, es un nombre que representa un nivel de acceso.&lt;/span&gt;&lt;/div&gt;&lt;div style=&quot;&quot;&gt;&lt;span style=&quot;background-color: initial;&quot;&gt;Resource owner: El dueño del recurso, en general el usuario final (plataforma).&lt;/span&gt;&lt;/div&gt;&lt;div style=&quot;&quot;&gt;&lt;span style=&quot;background-color: initial;&quot;&gt;Client: Aplicación que quiere acceder al recurso(s) en nombre del Resource owner. (El usuario no existe como entidad)&lt;/span&gt;&lt;/div&gt;&lt;div style=&quot;&quot;&gt;&lt;span style=&quot;background-color: initial;&quot;&gt;Authorization server: Es quien concede accesos y valida accesos, donde se definen todos los clientes, recursos y scopes.&lt;/span&gt;&lt;/div&gt;&lt;div style=&quot;&quot;&gt;&lt;span style=&quot;background-color: initial;&quot;&gt;Resource server: Donde reside el recurso, puede ser diferente al authorization server (ej. Gmail, YouTube, etc.)&lt;/span&gt;&lt;/div&gt;&lt;div style=&quot;&quot;&gt;&lt;span style=&quot;background-color: initial;&quot;&gt;Token: Es un código (o un JWT) que contiene información.&lt;/span&gt;&lt;/div&gt;&lt;div style=&quot;&quot;&gt;Access token: Un token que da acceso a un cliente sobre un recurso, sirve solo para ese recurso y puede tener un vencimiento o ser revocado. El auth server entrega - a los clientes para acceder a un recurso.&amp;nbsp;Llave o representación de una autorización.&lt;/div&gt;&lt;div style=&quot;&quot;&gt;&lt;span style=&quot;background-color: initial;&quot;&gt;Flujo / Grant: Define el modo en que un cliente debe solicitar un token.&lt;/span&gt;&lt;/div&gt;&lt;div style=&quot;&quot;&gt;&lt;span style=&quot;background-color: initial;&quot;&gt;Consent: Consentimiento de acceso a recursos.&lt;/span&gt;&lt;/div&gt;&lt;div style=&quot;&quot;&gt;&lt;span style=&quot;background-color: initial;&quot;&gt;Backchannel: Un canal de comunicación seguro, por ejemplo, una VPN entre un cliente y un authorization server. (Mientras no pase por un navegador)&lt;/span&gt;&lt;/div&gt;&lt;div style=&quot;&quot;&gt;&lt;span style=&quot;background-color: initial;&quot;&gt;Frontchannel:Canal inseguro, por ejemplo Intenet. (Navegador)&lt;/span&gt;&lt;/div&gt;" style="text;html=1;strokeColor=none;fillColor=none;align=left;verticalAlign=top;whiteSpace=wrap;rounded=0;" parent="1" vertex="1">
          <mxGeometry x="10" y="130" width="920" height="230" as="geometry" />
        </mxCell>
        <mxCell id="pZjR4BknA9586NugJOHq-4" value="Flujos Grants&lt;br&gt;Client credentials&lt;br&gt;&lt;font color=&quot;#b3b3b3&quot;&gt;Implicit&lt;/font&gt;&lt;br&gt;Code&lt;br&gt;Code + PKCE&lt;br&gt;Resource owner&lt;br&gt;&lt;font color=&quot;#b3b3b3&quot;&gt;Hybrid&lt;br&gt;Device&lt;/font&gt;" style="text;html=1;strokeColor=none;fillColor=none;align=left;verticalAlign=top;whiteSpace=wrap;rounded=0;" parent="1" vertex="1">
          <mxGeometry x="10" y="390" width="340" height="150" as="geometry" />
        </mxCell>
        <mxCell id="pZjR4BknA9586NugJOHq-5" value="Consideraciones generales sobre seguridad&lt;br&gt;El mejor escenario es utilizar backchanner y manetener sesión&lt;br&gt;Usar cookie HTTP only para mantener sesión&lt;br&gt;Usar HSTS&lt;br&gt;Usar siempre HTTPs (Let&#39;s encrypt)&lt;br&gt;No usar librería de terceros desconocidas&lt;br&gt;No usar CDNs desconocidos&lt;br&gt;Usar CSP" style="text;html=1;strokeColor=none;fillColor=none;align=left;verticalAlign=top;whiteSpace=wrap;rounded=0;fontColor=#000000;" parent="1" vertex="1">
          <mxGeometry x="10" y="590" width="430" height="130" as="geometry" />
        </mxCell>
        <mxCell id="pZjR4BknA9586NugJOHq-6" value="&lt;div&gt;Authentication vs Authorization&lt;/div&gt;&lt;div&gt;- Verificar que el usuario es quien dice ser&lt;/div&gt;&lt;div&gt;- Verificar que el usuario tenga permisos para acceder a cierto recurso&lt;/div&gt;" style="text;html=1;strokeColor=none;fillColor=none;align=left;verticalAlign=top;whiteSpace=wrap;rounded=0;fontColor=#000000;" parent="1" vertex="1">
          <mxGeometry x="10" y="-60" width="440" height="70" as="geometry" />
        </mxCell>
        <mxCell id="pZjR4BknA9586NugJOHq-7" value="&lt;div&gt;- Estándar Oauth&lt;/div&gt;&lt;div&gt;&amp;nbsp; - https://www.youtube.com/watch?v=nNVlewjKQEQ&amp;amp;ab_channel=SoftwareGuru&lt;/div&gt;&lt;div&gt;- Estándar OpenID Connect&lt;/div&gt;&lt;div&gt;&lt;br&gt;&lt;/div&gt;" style="text;html=1;strokeColor=none;fillColor=none;align=left;verticalAlign=top;whiteSpace=wrap;rounded=0;fontColor=#000000;" parent="1" vertex="1">
          <mxGeometry x="10" y="30" width="280" height="80" as="geometry" />
        </mxCell>
      </root>
    </mxGraphModel>
  </diagram>
</mxfile>
